<svg xmlns="http://www.w3.org/2000/svg" viewBox="0 0 1024 1024" width="1024" height="1024">
  <!-- Witte achtergrond -->
  <rect width="1024" height="1024" fill="white"/>

  <!-- Horizontale balk -->
  <rect x="172.0" y="770.0" width="680" height="62" rx="5" fill="#E30613"/>

  <!-- Cleat (onderstuk mast) -->
  <polygon points="473.0,715 551.0,715 592.0,770 432.0,770" fill="#E30613"/>

  <!-- Mast verticaal (volledig door) -->
  <rect x="473.0" y="132.0" width="78" height="583.0" fill="#E30613"/>

  <!-- Bovenkop mast -->
  <rect x="457.0" y="52" width="110" height="80" rx="4" fill="#E30613"/>

  <!-- Rode ringvulling (massief) -->
  <circle cx="512" cy="430" r="285" fill="#E30613"/>

  <!-- Witte binnenste uitsnede -->
  <circle cx="512" cy="430" r="205" fill="white"/>

  <!-- Touw bumps buitenzijde (wit, als uitsparingen) -->
  <ellipse cx="787.0" cy="430.0" rx="7.0" ry="11.0" transform="rotate(0.0,787.0,430.0)" fill="#E30613"/>
  <ellipse cx="785.0" cy="463.1" rx="7.0" ry="11.0" transform="rotate(6.9,785.0,463.1)" fill="#E30613"/>
  <ellipse cx="779.0" cy="495.8" rx="7.0" ry="11.0" transform="rotate(13.8,779.0,495.8)" fill="#E30613"/>
  <ellipse cx="769.1" cy="527.5" rx="7.0" ry="11.0" transform="rotate(20.8,769.1,527.5)" fill="#E30613"/>
  <ellipse cx="755.5" cy="557.8" rx="7.0" ry="11.0" transform="rotate(27.7,755.5,557.8)" fill="#E30613"/>
  <ellipse cx="738.3" cy="586.2" rx="7.0" ry="11.0" transform="rotate(34.6,738.3,586.2)" fill="#E30613"/>
  <ellipse cx="717.8" cy="612.4" rx="7.0" ry="11.0" transform="rotate(41.5,717.8,612.4)" fill="#E30613"/>
  <ellipse cx="694.4" cy="635.8" rx="7.0" ry="11.0" transform="rotate(48.5,694.4,635.8)" fill="#E30613"/>
  <ellipse cx="668.2" cy="656.3" rx="7.0" ry="11.0" transform="rotate(55.4,668.2,656.3)" fill="#E30613"/>
  <ellipse cx="639.8" cy="673.5" rx="7.0" ry="11.0" transform="rotate(62.3,639.8,673.5)" fill="#E30613"/>
  <ellipse cx="609.5" cy="687.1" rx="7.0" ry="11.0" transform="rotate(69.2,609.5,687.1)" fill="#E30613"/>
  <ellipse cx="577.8" cy="697.0" rx="7.0" ry="11.0" transform="rotate(76.2,577.8,697.0)" fill="#E30613"/>
  <ellipse cx="545.1" cy="703.0" rx="7.0" ry="11.0" transform="rotate(83.1,545.1,703.0)" fill="#E30613"/>
  <ellipse cx="512.0" cy="705.0" rx="7.0" ry="11.0" transform="rotate(90.0,512.0,705.0)" fill="#E30613"/>
  <ellipse cx="478.9" cy="703.0" rx="7.0" ry="11.0" transform="rotate(96.9,478.9,703.0)" fill="#E30613"/>
  <ellipse cx="446.2" cy="697.0" rx="7.0" ry="11.0" transform="rotate(103.8,446.2,697.0)" fill="#E30613"/>
  <ellipse cx="414.5" cy="687.1" rx="7.0" ry="11.0" transform="rotate(110.8,414.5,687.1)" fill="#E30613"/>
  <ellipse cx="384.2" cy="673.5" rx="7.0" ry="11.0" transform="rotate(117.7,384.2,673.5)" fill="#E30613"/>
  <ellipse cx="355.8" cy="656.3" rx="7.0" ry="11.0" transform="rotate(124.6,355.8,656.3)" fill="#E30613"/>
  <ellipse cx="329.6" cy="635.8" rx="7.0" ry="11.0" transform="rotate(131.5,329.6,635.8)" fill="#E30613"/>
  <ellipse cx="306.2" cy="612.4" rx="7.0" ry="11.0" transform="rotate(138.5,306.2,612.4)" fill="#E30613"/>
  <ellipse cx="285.7" cy="586.2" rx="7.0" ry="11.0" transform="rotate(145.4,285.7,586.2)" fill="#E30613"/>
  <ellipse cx="268.5" cy="557.8" rx="7.0" ry="11.0" transform="rotate(152.3,268.5,557.8)" fill="#E30613"/>
  <ellipse cx="254.9" cy="527.5" rx="7.0" ry="11.0" transform="rotate(159.2,254.9,527.5)" fill="#E30613"/>
  <ellipse cx="245.0" cy="495.8" rx="7.0" ry="11.0" transform="rotate(166.2,245.0,495.8)" fill="#E30613"/>
  <ellipse cx="239.0" cy="463.1" rx="7.0" ry="11.0" transform="rotate(173.1,239.0,463.1)" fill="#E30613"/>
  <ellipse cx="237.0" cy="430.0" rx="7.0" ry="11.0" transform="rotate(180.0,237.0,430.0)" fill="#E30613"/>
  <ellipse cx="239.0" cy="396.9" rx="7.0" ry="11.0" transform="rotate(186.9,239.0,396.9)" fill="#E30613"/>
  <ellipse cx="245.0" cy="364.2" rx="7.0" ry="11.0" transform="rotate(193.8,245.0,364.2)" fill="#E30613"/>
  <ellipse cx="254.9" cy="332.5" rx="7.0" ry="11.0" transform="rotate(200.8,254.9,332.5)" fill="#E30613"/>
  <ellipse cx="268.5" cy="302.2" rx="7.0" ry="11.0" transform="rotate(207.7,268.5,302.2)" fill="#E30613"/>
  <ellipse cx="285.7" cy="273.8" rx="7.0" ry="11.0" transform="rotate(214.6,285.7,273.8)" fill="#E30613"/>
  <ellipse cx="306.2" cy="247.6" rx="7.0" ry="11.0" transform="rotate(221.5,306.2,247.6)" fill="#E30613"/>
  <ellipse cx="329.6" cy="224.2" rx="7.0" ry="11.0" transform="rotate(228.5,329.6,224.2)" fill="#E30613"/>
  <ellipse cx="355.8" cy="203.7" rx="7.0" ry="11.0" transform="rotate(235.4,355.8,203.7)" fill="#E30613"/>
  <ellipse cx="384.2" cy="186.5" rx="7.0" ry="11.0" transform="rotate(242.3,384.2,186.5)" fill="#E30613"/>
  <ellipse cx="414.5" cy="172.9" rx="7.0" ry="11.0" transform="rotate(249.2,414.5,172.9)" fill="#E30613"/>
  <ellipse cx="446.2" cy="163.0" rx="7.0" ry="11.0" transform="rotate(256.2,446.2,163.0)" fill="#E30613"/>
  <ellipse cx="478.9" cy="157.0" rx="7.0" ry="11.0" transform="rotate(263.1,478.9,157.0)" fill="#E30613"/>
  <ellipse cx="512.0" cy="155.0" rx="7.0" ry="11.0" transform="rotate(270.0,512.0,155.0)" fill="#E30613"/>
  <ellipse cx="545.1" cy="157.0" rx="7.0" ry="11.0" transform="rotate(276.9,545.1,157.0)" fill="#E30613"/>
  <ellipse cx="577.8" cy="163.0" rx="7.0" ry="11.0" transform="rotate(283.8,577.8,163.0)" fill="#E30613"/>
  <ellipse cx="609.5" cy="172.9" rx="7.0" ry="11.0" transform="rotate(290.8,609.5,172.9)" fill="#E30613"/>
  <ellipse cx="639.8" cy="186.5" rx="7.0" ry="11.0" transform="rotate(297.7,639.8,186.5)" fill="#E30613"/>
  <ellipse cx="668.2" cy="203.7" rx="7.0" ry="11.0" transform="rotate(304.6,668.2,203.7)" fill="#E30613"/>
  <ellipse cx="694.4" cy="224.2" rx="7.0" ry="11.0" transform="rotate(311.5,694.4,224.2)" fill="#E30613"/>
  <ellipse cx="717.8" cy="247.6" rx="7.0" ry="11.0" transform="rotate(318.5,717.8,247.6)" fill="#E30613"/>
  <ellipse cx="738.3" cy="273.8" rx="7.0" ry="11.0" transform="rotate(325.4,738.3,273.8)" fill="#E30613"/>
  <ellipse cx="755.5" cy="302.2" rx="7.0" ry="11.0" transform="rotate(332.3,755.5,302.2)" fill="#E30613"/>
  <ellipse cx="769.1" cy="332.5" rx="7.0" ry="11.0" transform="rotate(339.2,769.1,332.5)" fill="#E30613"/>
  <ellipse cx="779.0" cy="364.2" rx="7.0" ry="11.0" transform="rotate(346.2,779.0,364.2)" fill="#E30613"/>
  <ellipse cx="785.0" cy="396.9" rx="7.0" ry="11.0" transform="rotate(353.1,785.0,396.9)" fill="#E30613"/>

  <!-- Touw bumps binnenzijde (wit, als uitsparingen) -->
  <ellipse cx="727.0" cy="430.0" rx="6.0" ry="10.0" transform="rotate(0.0,727.0,430.0)" fill="#E30613"/>
  <ellipse cx="724.1" cy="465.4" rx="6.0" ry="10.0" transform="rotate(9.5,724.1,465.4)" fill="#E30613"/>
  <ellipse cx="715.4" cy="499.8" rx="6.0" ry="10.0" transform="rotate(18.9,715.4,499.8)" fill="#E30613"/>
  <ellipse cx="701.1" cy="532.3" rx="6.0" ry="10.0" transform="rotate(28.4,701.1,532.3)" fill="#E30613"/>
  <ellipse cx="681.7" cy="562.1" rx="6.0" ry="10.0" transform="rotate(37.9,681.7,562.1)" fill="#E30613"/>
  <ellipse cx="657.6" cy="588.2" rx="6.0" ry="10.0" transform="rotate(47.4,657.6,588.2)" fill="#E30613"/>
  <ellipse cx="629.6" cy="610.0" rx="6.0" ry="10.0" transform="rotate(56.8,629.6,610.0)" fill="#E30613"/>
  <ellipse cx="598.4" cy="626.9" rx="6.0" ry="10.0" transform="rotate(66.3,598.4,626.9)" fill="#E30613"/>
  <ellipse cx="564.8" cy="638.4" rx="6.0" ry="10.0" transform="rotate(75.8,564.8,638.4)" fill="#E30613"/>
  <ellipse cx="529.8" cy="644.3" rx="6.0" ry="10.0" transform="rotate(85.3,529.8,644.3)" fill="#E30613"/>
  <ellipse cx="494.2" cy="644.3" rx="6.0" ry="10.0" transform="rotate(94.7,494.2,644.3)" fill="#E30613"/>
  <ellipse cx="459.2" cy="638.4" rx="6.0" ry="10.0" transform="rotate(104.2,459.2,638.4)" fill="#E30613"/>
  <ellipse cx="425.6" cy="626.9" rx="6.0" ry="10.0" transform="rotate(113.7,425.6,626.9)" fill="#E30613"/>
  <ellipse cx="394.4" cy="610.0" rx="6.0" ry="10.0" transform="rotate(123.2,394.4,610.0)" fill="#E30613"/>
  <ellipse cx="366.4" cy="588.2" rx="6.0" ry="10.0" transform="rotate(132.6,366.4,588.2)" fill="#E30613"/>
  <ellipse cx="342.3" cy="562.1" rx="6.0" ry="10.0" transform="rotate(142.1,342.3,562.1)" fill="#E30613"/>
  <ellipse cx="322.9" cy="532.3" rx="6.0" ry="10.0" transform="rotate(151.6,322.9,532.3)" fill="#E30613"/>
  <ellipse cx="308.6" cy="499.8" rx="6.0" ry="10.0" transform="rotate(161.1,308.6,499.8)" fill="#E30613"/>
  <ellipse cx="299.9" cy="465.4" rx="6.0" ry="10.0" transform="rotate(170.5,299.9,465.4)" fill="#E30613"/>
  <ellipse cx="297.0" cy="430.0" rx="6.0" ry="10.0" transform="rotate(180.0,297.0,430.0)" fill="#E30613"/>
  <ellipse cx="299.9" cy="394.6" rx="6.0" ry="10.0" transform="rotate(189.5,299.9,394.6)" fill="#E30613"/>
  <ellipse cx="308.6" cy="360.2" rx="6.0" ry="10.0" transform="rotate(198.9,308.6,360.2)" fill="#E30613"/>
  <ellipse cx="322.9" cy="327.7" rx="6.0" ry="10.0" transform="rotate(208.4,322.9,327.7)" fill="#E30613"/>
  <ellipse cx="342.3" cy="297.9" rx="6.0" ry="10.0" transform="rotate(217.9,342.3,297.9)" fill="#E30613"/>
  <ellipse cx="366.4" cy="271.8" rx="6.0" ry="10.0" transform="rotate(227.4,366.4,271.8)" fill="#E30613"/>
  <ellipse cx="394.4" cy="250.0" rx="6.0" ry="10.0" transform="rotate(236.8,394.4,250.0)" fill="#E30613"/>
  <ellipse cx="425.6" cy="233.1" rx="6.0" ry="10.0" transform="rotate(246.3,425.6,233.1)" fill="#E30613"/>
  <ellipse cx="459.2" cy="221.6" rx="6.0" ry="10.0" transform="rotate(255.8,459.2,221.6)" fill="#E30613"/>
  <ellipse cx="494.2" cy="215.7" rx="6.0" ry="10.0" transform="rotate(265.3,494.2,215.7)" fill="#E30613"/>
  <ellipse cx="529.8" cy="215.7" rx="6.0" ry="10.0" transform="rotate(274.7,529.8,215.7)" fill="#E30613"/>
  <ellipse cx="564.8" cy="221.6" rx="6.0" ry="10.0" transform="rotate(284.2,564.8,221.6)" fill="#E30613"/>
  <ellipse cx="598.4" cy="233.1" rx="6.0" ry="10.0" transform="rotate(293.7,598.4,233.1)" fill="#E30613"/>
  <ellipse cx="629.6" cy="250.0" rx="6.0" ry="10.0" transform="rotate(303.2,629.6,250.0)" fill="#E30613"/>
  <ellipse cx="657.6" cy="271.8" rx="6.0" ry="10.0" transform="rotate(312.6,657.6,271.8)" fill="#E30613"/>
  <ellipse cx="681.7" cy="297.9" rx="6.0" ry="10.0" transform="rotate(322.1,681.7,297.9)" fill="#E30613"/>
  <ellipse cx="701.1" cy="327.7" rx="6.0" ry="10.0" transform="rotate(331.6,701.1,327.7)" fill="#E30613"/>
  <ellipse cx="715.4" cy="360.2" rx="6.0" ry="10.0" transform="rotate(341.1,715.4,360.2)" fill="#E30613"/>
  <ellipse cx="724.1" cy="394.6" rx="6.0" ry="10.0" transform="rotate(350.5,724.1,394.6)" fill="#E30613"/>

  <!-- BvK tekst -->
  <text x="512" y="442"
        font-family="Arial Black, Arial, sans-serif"
        font-weight="900"
        font-size="168"
        fill="#1B8DD4"
        text-anchor="middle"
        dominant-baseline="middle"
        letter-spacing="-3">BvK</text>
</svg>